<svg width="20" height="20" viewBox="0 0 20 20" fill="none" xmlns="http://www.w3.org/2000/svg">
<g clip-path="url(#clip0_45_8)">
<path d="M9.625 19.5C14.8717 19.5 19.125 15.2467 19.125 10C19.125 4.75329 14.8717 0.5 9.625 0.5C4.37829 0.5 0.125 4.75329 0.125 10C0.125 15.2467 4.37829 19.5 9.625 19.5Z" fill="#F3BA2F"/>
<path d="M7.31888 9.05238L9.625 6.74625L11.9323 9.05356L13.2742 7.71169L9.625 4.0625L5.977 7.7105L7.31888 9.05238ZM3.6875 10L5.02938 8.65812L6.37125 10L5.02938 11.3419L3.6875 10ZM7.31888 10.9476L9.625 13.2537L11.9323 10.9464L13.2742 12.2877L9.625 15.9375L5.977 12.2895L5.97522 12.2877L7.31888 10.9476ZM12.8787 10L14.2206 8.65812L15.5625 10L14.2206 11.3419L12.8787 10ZM10.9859 9.99881H10.9871V10L9.625 11.3621L8.26472 10.0024L8.26234 10L8.26472 9.99822L8.50281 9.75953L8.61859 9.64375L9.625 8.63794L10.9865 9.99941L10.9859 9.99881Z" fill="white"/>
</g>
<defs>
<clipPath id="clip0_45_8">
<rect width="19" height="19" fill="white" transform="translate(0.125 0.5)"/>
</clipPath>
</defs>
</svg>
