<svg width="100" height="21" viewBox="0 0 100 21" fill="none" xmlns="http://www.w3.org/2000/svg">
<path d="M11.8371 10.8379L0.861766 2.51611L0 3.16388V16.6665L5.31073 20.6625L6.17326 20.0194V11.8118L11.8371 16.0073L17.5009 11.8118V20.0194L18.3646 20.6616L23.6742 16.6665V3.16388L22.8124 2.51611L11.8371 10.8379Z" fill="white"/>
<path d="M11.8377 8.8369L6.17383 4.64962V0.654585L7.03 0L11.8376 3.67569L16.6453 0L17.5015 0.654585V4.64962L11.8377 8.8369Z" fill="white"/>
<path d="M30.3242 3.1936V4.03949L31.7429 5.54329L34.9349 8.42497L38.2156 13.745H41.4076L44.1585 9.13431H44.511V17.0257L44.9543 17.469H47.2597L47.703 17.0257V3.63694L47.2597 3.1936H44.511L39.7894 11.1072L34.9349 3.1936H30.3242Z" fill="white"/>
<path d="M32.1862 17.469H34.4916L34.9349 17.0257V9.48898L31.7429 6.60729V17.0257L32.1862 17.469Z" fill="white"/>
<path d="M79.9785 3.1936V4.03949L84.5892 8.86831V3.63694L84.1459 3.1936H79.9785Z" fill="white"/>
<path d="M81.8405 17.469H84.1459L84.5892 17.0257V10.2426L81.3972 6.91763V17.0257L81.8405 17.469Z" fill="white"/>
<path d="M86.8642 17.469H89.6129L92.8922 8.55797L90.6627 5.94266L86.584 17.0257L86.8642 17.469Z" fill="white"/>
<path d="M96.9722 17.469L93.2848 7.49126L91.0582 4.8679L91.6744 3.1936H96.3072V4.03949L95.5125 4.88191L100 17.0257L99.7209 17.469H96.9722Z" fill="white"/>
<path d="M72.2203 17.469L66.6786 3.1936H63.9299L63.6504 3.63694L68.7622 17.469H72.2203Z" fill="white"/>
<path d="M77.0083 3.1936H74.2818L70.9789 12.282L72.6118 16.405L77.3107 3.63694L77.0083 3.1936Z" fill="white"/>
<path d="M54.1763 3.1936V4.03949L54.957 4.86701L57.1832 7.49126L60.8707 17.469H63.6194L63.8988 17.0257L58.787 3.1936H54.1763Z" fill="white"/>
<path d="M53.5113 17.469H50.94L50.4824 17.0257L54.5613 5.94229L56.7907 8.55797L53.5113 17.469Z" fill="white"/>
<path d="M70.8001 6.87329L72.2428 3.63694L71.9971 3.1936H69.6031L69.3574 3.63694L70.8001 6.87329Z" fill="white"/>
</svg>
