<svg width="187" height="120" viewBox="0 0 187 120" fill="none" xmlns="http://www.w3.org/2000/svg">
<path d="M37.2649 70.8049V66.2361H43.1898V63.9516H37.2649V59.3828H35.8131L34.9805 60.2157V70.8049H37.2649Z" fill="white"/>
<path d="M44.1181 59.3828V66.2361V70.8049H46.4025V60.2157L45.5694 59.3828H44.1181Z" fill="white"/>
<path d="M50.9485 68.5205V66.2361V61.6672H60.0861V60.2157L59.253 59.3828H49.4967L48.6641 60.2157V70.8049H59.253L60.0861 69.972V68.5205H50.9485Z" fill="white"/>
<path d="M57.8017 63.9516H51.8763V66.2361H56.9924L57.8017 65.4508V63.9516Z" fill="white"/>
<path d="M91.9954 68.5205V66.2361V61.6672H101.133V60.2157L100.3 59.3828H90.5436L89.7109 60.2157V70.8049H100.3L101.133 69.972V68.5205H91.9954Z" fill="white"/>
<path d="M98.8486 63.9516H92.9232V66.2361H98.0393L98.8486 65.4508V63.9516Z" fill="white"/>
<path d="M62.3477 59.3828V69.972L63.1803 70.8049H64.6321V66.2361V61.6672H71.4853V63.9516H65.5599V66.2361H67.4876L70.9142 70.8049H73.7697L70.3431 66.2361H71.4853C72.7417 66.2361 73.7697 65.2081 73.7697 63.9516V61.2865L71.8658 59.3828H62.3477Z" fill="white"/>
<path d="M77.9308 70.8049L76.0273 68.9012V61.2865L77.9308 59.3828H85.1886L87.4494 61.6434V68.9012L85.5455 70.8049H77.9308ZM78.3118 61.6672V68.5205H85.165V61.6672H78.3118Z" fill="white"/>
<path d="M128.735 70.8049L126.832 68.9012V61.2865L128.735 59.3828H135.993L138.254 61.6434V68.9012L136.35 70.8049H128.735ZM129.116 61.6672V68.5205H135.97V61.6672H129.116Z" fill="white"/>
<path d="M104.227 70.8049L103.395 69.972V68.5205H112.532V66.2361H103.395V61.2865L105.298 59.3828H113.984L114.817 60.2157V61.6672H105.679V63.9516H114.817V68.9012L112.913 70.8049H104.227Z" fill="white"/>
<path d="M142.8 70.8049V66.2361V61.6672H151.105L151.938 60.8106V59.3828H141.348L140.516 60.2157V70.8049H142.8Z" fill="white"/>
<path d="M149.653 65.4508V63.9516H143.609V66.2361H148.844L149.653 65.4508Z" fill="white"/>
<path d="M16.7773 65.5695V64.6177L28.9133 64.2607V65.9265L16.7773 65.5695Z" fill="white"/>
<path d="M170.141 65.5695V64.6177L158.005 64.2607V65.9265L170.141 65.5695Z" fill="white"/>
<path d="M0 80.918V83.1881L3.80736 87.2239L12.3739 94.9576L21.1784 109.235H29.745L37.1277 96.8613H38.0736V118.04L39.2634 119.229H45.4503L46.6401 118.04V82.1078L45.4503 80.918H38.0736L25.4022 102.156L12.3739 80.918H0Z" fill="white"/>
<path d="M4.99715 119.229H11.1841L12.3739 118.04V97.8131L3.80736 90.0794V118.04L4.99715 119.229Z" fill="white"/>
<path d="M133.258 80.918V83.1881L145.632 96.1474V82.1078L144.442 80.918H133.258Z" fill="white"/>
<path d="M138.255 119.229H144.442L145.632 118.04V99.8358L137.065 90.9123V118.04L138.255 119.229Z" fill="white"/>
<path d="M151.736 119.229H159.113L167.914 95.3145L161.931 88.2957L150.984 118.04L151.736 119.229Z" fill="white"/>
<path d="M178.864 119.229L168.968 92.4518L162.992 85.4114L164.646 80.918H177.079V83.1881L174.946 85.4489L186.991 118.04L186.241 119.229H178.864Z" fill="white"/>
<path d="M112.437 119.229L97.5643 80.918H90.1876L89.4375 82.1078L103.156 119.229H112.437Z" fill="white"/>
<path d="M125.287 80.918H117.969L109.105 105.309L113.488 116.374L126.098 82.1078L125.287 80.918Z" fill="white"/>
<path d="M64.011 80.918V83.1881L66.1062 85.4089L72.0809 92.4518L81.977 119.229H89.3538L90.1039 118.04L76.385 80.918H64.011Z" fill="white"/>
<path d="M62.2263 119.229H55.3256L54.0977 118.04L65.0442 88.2947L71.0273 95.3145L62.2263 119.229Z" fill="white"/>
<path d="M183 83.9781H182.6C182.531 83.9781 182.496 83.9448 182.496 83.8782V81.4938C182.496 81.4589 182.478 81.4415 182.443 81.4415H181.901C181.834 81.4415 181.801 81.4082 181.801 81.3415V81.0179C181.801 80.9513 181.834 80.918 181.901 80.918H183.7C183.766 80.918 183.8 80.9513 183.8 81.0179V81.3415C183.8 81.4082 183.766 81.4415 183.7 81.4415H183.157C183.119 81.4415 183.1 81.4589 183.1 81.4938V83.8782C183.1 83.9448 183.067 83.9781 183 83.9781Z" fill="white"/>
<path d="M186.195 80.918H186.9C186.966 80.918 187 80.9513 187 81.0179V83.8782C187 83.9448 186.966 83.9781 186.9 83.9781H186.509C186.443 83.9781 186.409 83.9448 186.409 83.8782V81.6223H186.39L185.905 83.2167C185.886 83.2801 185.846 83.3118 185.786 83.3118H185.386C185.326 83.3118 185.286 83.2801 185.267 83.2167L184.772 81.6176H184.753V83.8782C184.753 83.9163 184.747 83.9432 184.734 83.9591C184.721 83.9718 184.694 83.9781 184.653 83.9781H184.263C184.196 83.9781 184.163 83.9448 184.163 83.8782V81.0179C184.163 80.9513 184.196 80.918 184.263 80.918H184.972C185.017 80.918 185.047 80.9402 185.063 80.9846L185.567 82.6646H185.596L186.105 80.9846C186.114 80.9402 186.144 80.918 186.195 80.918Z" fill="white"/>
<path d="M108.63 90.7937L112.501 82.1082L111.842 80.9184H105.417L104.758 82.1082L108.63 90.7937Z" fill="white"/>
<path d="M93.5178 23.651L69.5789 5.49976L67.6992 6.91264V36.3642L79.2828 45.08L81.1641 43.6774V25.7753L93.5178 34.9262L105.872 25.7753V43.6774L107.755 45.0781L119.336 36.3642V6.91264L117.457 5.49976L93.5178 23.651Z" fill="white"/>
<path d="M93.518 19.2865L81.1641 10.1533V1.43948L83.0315 0.0117188L93.5178 8.029L104.004 0.0117188L105.872 1.43948V10.1533L93.518 19.2865Z" fill="white"/>
</svg>
